<?xml version="1.0" standalone="no"?>
<!DOCTYPE svg PUBLIC "-//W3C//DTD SVG 20010904//EN"
 "http://www.w3.org/TR/2001/REC-SVG-20010904/DTD/svg10.dtd">
<svg version="1.0" xmlns="http://www.w3.org/2000/svg"
 width="2048.000000pt" height="2048.000000pt" viewBox="0 0 2048.000000 2048.000000"
 preserveAspectRatio="xMidYMid meet">
<metadata>
Created by potrace 1.14, written by Peter Selinger 2001-2017
</metadata>
<g transform="translate(0.000000,2048.000000) scale(0.100000,-0.100000)"
fill="#000000" stroke="none">
<path d="M8889 17629 c-295 -16 -659 -91 -992 -204 -89 -30 -174 -55 -189 -55
-33 0 -49 -20 -58 -72 -17 -93 60 -228 182 -319 59 -44 74 -59 60 -63 -9 -3
-87 -21 -172 -40 -293 -66 -326 -70 -655 -69 -332 1 -461 14 -588 60 -92 33
-352 162 -431 215 -34 22 -133 113 -221 203 -88 89 -174 170 -192 179 -18 9
-51 16 -73 16 -68 0 -117 -60 -224 -276 -151 -305 -187 -421 -278 -899 -9 -47
-13 -153 -13 -320 1 -246 1 -252 34 -394 18 -79 48 -189 67 -244 77 -218 214
-448 369 -615 42 -46 56 -67 49 -77 -60 -85 -171 -257 -209 -324 -163 -290
-286 -677 -289 -911 -2 -161 24 -199 125 -187 49 6 51 5 45 -16 -3 -12 -9 -76
-12 -142 -11 -207 25 -480 86 -645 36 -100 62 -137 103 -148 49 -13 126 6 177
42 l45 32 1 -500 c0 -355 4 -520 13 -566 11 -60 33 -133 161 -540 27 -85 54
-177 61 -205 26 -113 65 -238 120 -387 31 -87 71 -205 89 -263 28 -95 141
-371 263 -640 24 -55 67 -163 95 -240 111 -309 229 -551 313 -642 21 -23 39
-48 39 -54 0 -6 55 -68 123 -137 68 -70 138 -147 157 -171 51 -66 340 -332
465 -427 151 -115 232 -180 298 -240 31 -28 80 -65 109 -82 29 -16 87 -58 128
-92 41 -34 90 -69 108 -79 l34 -17 -84 -71 c-89 -76 -271 -260 -379 -383 -167
-190 -440 -589 -503 -735 -52 -119 -152 -289 -196 -331 -19 -18 -58 -54 -86
-78 -58 -52 -97 -118 -124 -209 -10 -34 -35 -99 -55 -145 -29 -65 -38 -101
-42 -161 l-6 -78 -100 -64 c-134 -85 -192 -132 -221 -177 -13 -20 -44 -62 -70
-92 -109 -127 -178 -273 -217 -457 -39 -182 -12 -288 108 -424 32 -36 91 -105
132 -152 113 -134 171 -171 326 -211 55 -14 132 -35 170 -45 39 -11 103 -20
144 -20 246 -2 601 198 699 394 17 36 60 164 94 285 l13 45 100 11 c112 12
194 46 264 109 21 19 40 35 42 35 2 0 5 -107 5 -238 2 -260 19 -692 33 -843
11 -112 37 -218 93 -386 l41 -121 -26 -64 c-39 -98 -51 -200 -32 -273 18 -66
51 -129 84 -159 l22 -20 -98 -22 c-177 -40 -417 -164 -506 -263 -87 -96 -157
-316 -157 -490 0 -192 108 -360 305 -471 180 -102 152 -95 395 -92 213 2 236
0 460 -39 36 -7 205 -15 375 -20 171 -4 365 -11 432 -15 198 -11 290 20 347
118 25 43 114 311 135 403 16 76 49 347 56 460 3 55 10 137 17 183 l11 83 24
-73 c13 -40 28 -91 33 -113 21 -92 51 -319 60 -450 5 -77 16 -180 24 -230 8
-49 20 -141 27 -203 15 -134 29 -161 101 -199 l53 -28 445 2 c344 1 472 5 565
17 66 9 210 23 320 31 218 16 284 28 432 75 159 51 212 91 333 251 45 59 93
115 106 124 46 30 58 70 62 210 5 158 -7 246 -46 330 -39 82 -87 134 -186 199
-163 108 -326 175 -448 183 l-77 6 51 56 c67 74 83 113 103 254 17 130 14 186
-18 260 -18 43 -19 62 -14 190 14 349 27 489 59 617 38 154 39 221 2 410 -26
136 -27 148 -16 249 7 58 17 123 23 144 l10 37 40 -51 c51 -64 140 -122 223
-144 57 -16 77 -16 173 -6 169 19 154 22 168 -25 21 -69 135 -270 187 -328 55
-62 187 -165 257 -201 74 -37 153 -48 313 -42 192 7 274 20 366 59 68 29 90
46 188 143 122 122 162 183 193 295 26 93 26 157 1 307 -33 193 -57 267 -106
333 -114 151 -332 298 -500 337 l-71 17 -6 75 c-7 96 -47 214 -100 294 -22 34
-82 103 -134 154 -87 86 -96 98 -134 190 -22 54 -54 143 -69 198 -100 348
-184 516 -390 775 -174 218 -328 364 -462 437 -80 43 -88 49 -71 61 34 24 318
189 443 257 223 122 257 149 508 404 294 297 422 449 511 606 77 134 278 557
308 650 37 112 113 279 199 440 220 413 321 643 408 923 71 228 81 274 100
442 8 63 20 140 28 170 15 54 35 143 57 250 6 30 22 103 36 161 64 281 82 532
50 684 -22 101 -47 449 -35 480 17 44 48 176 64 267 52 296 36 699 -39 1030
-89 389 -313 842 -580 1172 -119 147 -112 134 -66 132 46 -1 94 36 117 91 30
70 12 261 -38 403 -66 186 -154 328 -263 427 -163 147 -348 215 -664 243 -136
12 -235 8 -350 -17 -87 -18 -71 -29 -146 108 -113 205 -319 443 -530 612 -326
262 -753 446 -971 421 -63 -8 -74 -21 -74 -84 0 -56 16 -83 120 -200 73 -83
257 -307 304 -369 13 -18 14 -18 -99 54 -131 84 -255 151 -556 300 -585 289
-965 412 -1436 464 -282 31 -589 42 -824 30z m3084 -3425 c247 -27 529 -91
667 -153 l45 -20 -100 0 c-103 -1 -306 20 -385 40 -52 13 -578 4 -700 -12
-267 -35 -347 -34 -563 7 -70 13 -153 24 -185 25 l-57 1 45 14 c104 33 440 89
635 107 117 11 469 6 598 -9z m-2243 -119 c-13 -14 -33 -25 -44 -25 -16 0 -12
6 19 25 51 31 54 31 25 0z m-247 -299 c-20 -28 -49 -65 -63 -82 -38 -44 -118
-175 -125 -204 -4 -16 0 -32 11 -46 l18 -21 40 26 c23 14 78 52 123 84 44 31
86 57 92 57 6 0 11 4 11 8 0 5 12 15 28 22 15 8 68 37 117 66 50 28 135 75
190 104 l100 53 815 -7 c448 -4 829 -9 845 -11 17 -2 129 -7 250 -10 121 -4
236 -8 255 -11 19 -2 139 -8 265 -14 127 -5 255 -12 285 -15 30 -2 127 -9 215
-15 88 -6 169 -12 181 -15 37 -8 193 -176 269 -290 81 -121 125 -215 150 -327
27 -115 33 -128 66 -128 15 0 30 4 33 9 4 5 16 54 27 108 17 74 22 134 22 248
1 140 -6 198 -39 311 -5 20 -5 20 87 4 86 -15 93 -18 126 -55 68 -80 184 -264
273 -437 50 -97 96 -178 103 -181 21 -8 65 4 71 19 6 15 -11 325 -19 359 -3
11 9 -9 27 -45 17 -36 35 -81 39 -100 20 -88 38 -151 53 -181 9 -18 16 -39 16
-47 0 -15 20 -108 40 -182 14 -53 28 -123 51 -260 20 -112 29 -179 44 -330 3
-25 8 -211 11 -415 5 -267 3 -385 -6 -425 -6 -30 -15 -89 -21 -130 -15 -122
-10 -116 -97 -143 -42 -14 -99 -28 -127 -32 -27 -4 -90 -15 -140 -25 -49 -10
-144 -26 -210 -34 -66 -9 -148 -21 -181 -26 -34 -6 -75 -10 -93 -10 -17 0 -50
-4 -73 -10 -41 -9 -154 -20 -423 -41 -66 -6 -165 -14 -220 -19 -155 -14 -595
-43 -810 -55 -592 -31 -951 -44 -1212 -45 -135 0 -253 -4 -268 -10 -34 -13
-2320 -15 -2355 -2 -14 5 -110 10 -215 11 -202 2 -530 17 -990 46 -551 35
-1080 110 -1189 167 -29 15 -66 56 -66 72 0 8 -7 19 -15 26 -8 7 -15 29 -15
49 0 21 -7 89 -16 152 -11 83 -15 199 -15 429 0 173 2 329 5 345 2 17 10 91
17 165 6 74 16 143 21 153 8 16 27 107 48 227 4 25 18 77 31 115 13 39 23 77
24 85 0 8 9 42 19 75 10 33 23 75 28 94 7 24 68 92 201 228 104 106 192 192
193 190 2 -2 -36 -84 -85 -183 -95 -191 -125 -266 -116 -293 10 -32 95 -49 95
-19 0 29 260 270 455 423 112 87 368 258 490 328 l80 46 150 9 c83 5 151 8
153 7 1 -1 -5 -22 -13 -46 -53 -149 -135 -490 -135 -562 0 -37 4 -47 20 -52
28 -9 58 11 74 48 16 39 107 124 238 222 166 125 402 262 643 374 l130 60 143
7 c78 4 142 5 142 2 0 -2 -22 -54 -49 -114 -26 -60 -76 -187 -110 -283 -70
-195 -73 -231 -20 -231 23 0 31 6 43 33 33 80 290 359 470 509 l118 100 69 -4
c60 -3 70 -1 75 15 5 17 7 18 25 1 18 -16 18 -18 -18 -68z m4142 74 c3 -5 2
-10 -4 -10 -5 0 -13 5 -16 10 -3 6 -2 10 4 10 5 0 13 -4 16 -10z m585 -85 c7
-9 8 -15 2 -15 -5 0 -12 7 -16 15 -3 8 -4 15 -2 15 2 0 9 -7 16 -15z m285
-3002 c-11 -45 -172 -493 -229 -640 -30 -76 -75 -192 -101 -258 -92 -237 -289
-693 -375 -871 -339 -699 -825 -1218 -1475 -1576 -134 -73 -226 -119 -307
-153 l-67 -28 -59 54 c-74 69 -216 141 -347 176 -89 25 -117 28 -245 27 -283
-2 -574 -55 -708 -130 -35 -20 -128 -85 -208 -145 -79 -59 -152 -113 -162
-118 -14 -8 -34 1 -91 39 -76 52 -135 75 -241 90 -303 46 -319 50 -469 110
-183 73 -206 78 -383 86 -128 6 -152 4 -228 -15 -84 -22 -169 -58 -242 -103
l-36 -23 -99 50 c-435 219 -799 493 -1062 800 -47 55 -100 116 -118 135 -99
109 -293 408 -403 623 -160 309 -448 1002 -642 1542 -27 77 -63 177 -78 223
l-29 83 107 -7 c59 -3 141 -10 182 -15 41 -5 129 -16 195 -24 161 -20 489 -44
770 -56 127 -5 284 -15 350 -21 66 -6 327 -14 580 -19 253 -4 499 -11 547 -14
60 -5 132 -2 235 10 116 14 175 16 273 9 69 -4 325 -9 570 -9 419 -1 453 -3
590 -25 127 -21 176 -24 400 -24 152 1 324 7 425 17 113 11 376 20 790 27 635
10 830 19 1040 44 66 8 201 20 300 26 346 20 853 79 959 110 89 27 100 26 91
-7z m-7275 -5525 c-38 -57 -87 -170 -115 -263 -43 -142 -45 -146 -39 -75 7 78
37 201 63 264 13 29 35 56 62 76 23 16 44 30 46 30 3 0 -5 -15 -17 -32z m6078
-6 c19 -13 42 -44 53 -69 26 -62 56 -185 63 -263 6 -71 4 -67 -39 75 -28 94
-77 206 -116 264 -25 37 -18 36 39 -7z m-107 -84 c11 -40 36 -111 55 -158 19
-47 34 -88 34 -92 0 -3 16 -40 35 -81 19 -41 35 -81 35 -89 0 -17 -37 -68 -50
-68 -4 0 -15 30 -24 67 -24 96 -88 211 -159 288 -56 62 -60 69 -47 88 13 21
93 117 97 117 1 0 12 -33 24 -72z m-5803 -14 l52 -60 -56 -85 c-30 -46 -85
-144 -122 -217 l-67 -134 -33 37 c-39 42 -43 19 44 252 69 186 115 287 124
275 4 -4 30 -34 58 -68z m5720 -310 c59 -103 112 -216 112 -238 0 -14 -81 -86
-98 -86 -6 0 -54 46 -107 102 -96 101 -183 220 -188 256 -1 14 23 41 78 89
l80 70 36 -51 c19 -28 59 -92 87 -142z m-5508 102 c38 -32 70 -65 70 -73 0
-19 -45 -106 -97 -188 -45 -69 -158 -195 -175 -195 -5 0 -33 19 -62 41 l-53
42 48 91 c26 50 61 127 79 171 32 81 94 179 110 173 5 -2 41 -29 80 -62z
m5166 -168 c46 -92 132 -215 196 -279 48 -47 59 -63 47 -70 -8 -4 -39 -23 -69
-42 l-55 -34 -60 51 c-85 72 -182 172 -212 217 -14 21 -26 54 -28 73 -3 35 -1
38 73 86 42 27 78 50 79 50 2 0 14 -24 29 -52z m-4876 -53 c0 -36 -113 -213
-188 -296 -78 -85 -87 -87 -160 -44 l-61 37 83 81 c73 72 90 96 140 199 l58
116 64 -41 c35 -22 64 -46 64 -52z m185 -82 c30 -15 55 -31 55 -37 0 -42 -177
-274 -248 -325 -37 -26 -43 -26 -119 0 l-61 20 80 77 c88 83 160 173 198 246
14 25 28 46 32 46 4 0 32 -12 63 -27z m4425 -19 c38 -73 110 -163 198 -246
l80 -77 -61 -20 c-76 -26 -82 -26 -119 0 -71 51 -248 283 -248 325 0 10 96 62
115 63 6 1 21 -20 35 -45z m-5414 -4 c41 0 50 -5 121 -71 85 -79 232 -192 306
-234 26 -15 47 -29 47 -32 0 -3 -10 -19 -22 -36 -18 -24 -23 -48 -25 -110 -5
-138 -58 -252 -164 -352 -69 -65 -169 -121 -259 -146 -78 -21 -225 -16 -304
10 -226 74 -365 282 -336 503 5 35 13 77 18 93 46 150 218 316 371 358 42 11
170 25 189 20 8 -2 34 -3 58 -3z m6657 -20 c122 -40 249 -135 302 -225 24 -41
32 -74 61 -236 17 -94 17 -96 -5 -168 -20 -65 -30 -81 -103 -157 -52 -54 -98
-92 -127 -105 -67 -30 -228 -52 -343 -47 -88 5 -102 8 -154 39 -100 59 -183
151 -241 265 -37 73 -53 118 -57 160 -10 91 -24 130 -57 164 -17 17 -30 32
-28 34 2 2 50 38 107 80 56 42 135 107 174 145 l72 68 168 2 c145 1 176 -1
231 -19z m-3372 -740 c176 0 184 -4 181 -79 -1 -29 -11 -69 -22 -91 -31 -62
-77 -74 -284 -74 -281 -1 -316 16 -316 159 0 45 3 85 8 90 4 4 70 5 147 1 77
-3 206 -6 286 -6z m-1485 -1296 c20 -9 51 -14 68 -11 17 2 49 -4 75 -16 42
-18 51 -19 127 -7 74 12 88 11 128 -4 24 -9 68 -17 98 -17 177 2 304 -9 342
-29 29 -14 50 -18 78 -14 24 4 58 0 93 -11 31 -9 67 -14 80 -11 14 4 41 0 60
-8 34 -14 41 -29 38 -81 -3 -39 -38 -182 -47 -193 -10 -10 -30 -10 -102 -1
-49 6 -147 14 -219 18 -77 4 -140 12 -154 20 -15 8 -75 14 -175 17 -83 2 -180
9 -216 15 -92 16 -174 16 -255 -1 -86 -17 -222 -14 -252 6 -12 8 -29 14 -37
14 -27 0 -54 65 -56 132 -1 35 -1 69 -1 75 1 7 22 35 49 62 l48 48 51 -10 c42
-9 57 -8 84 6 42 21 48 21 95 1z m2996 -57 c35 -26 42 -47 39 -125 -3 -71 -31
-132 -61 -132 -11 0 -21 -4 -24 -8 -6 -9 -427 -6 -528 4 -39 4 -95 1 -135 -6
-37 -6 -104 -16 -148 -21 -44 -5 -108 -15 -143 -23 -43 -10 -73 -11 -95 -5
-53 15 -102 10 -161 -16 -62 -27 -156 -34 -173 -12 -6 6 -18 50 -28 97 -19 95
-19 93 -17 138 2 30 5 32 37 32 19 0 53 7 76 16 35 15 48 15 94 4 60 -14 106
-9 205 21 56 17 87 20 235 17 164 -3 172 -2 214 21 42 24 47 24 130 13 68 -9
101 -9 156 2 103 20 291 10 327 -17z"/>
<path d="M10115 13549 c-196 -28 -230 -39 -441 -140 -56 -27 -108 -48 -115
-46 -8 2 -11 2 -7 0 7 -4 -35 -37 -127 -99 -125 -84 -205 -165 -205 -208 0 -8
-39 -84 -86 -168 -97 -173 -162 -345 -171 -456 -7 -82 20 -298 49 -396 35
-115 188 -426 211 -426 5 0 20 -15 35 -32 76 -93 145 -155 206 -187 36 -18 88
-50 116 -70 84 -61 132 -88 221 -126 212 -90 368 -89 822 5 189 40 219 58 403
238 128 126 161 165 220 260 38 62 85 139 104 170 89 143 136 372 111 545 -6
45 -11 100 -11 123 0 46 -16 101 -36 125 -8 9 -25 47 -38 85 -37 111 -121 262
-248 452 -43 64 -63 82 -151 139 -56 37 -145 85 -197 108 -52 23 -114 52 -138
64 -60 31 -220 61 -316 60 -44 -1 -139 -9 -211 -20z m348 -163 c41 -8 112 -32
158 -54 46 -22 95 -43 109 -47 14 -4 69 -34 123 -68 129 -80 161 -123 281
-380 30 -65 64 -130 74 -145 53 -76 89 -264 84 -436 -5 -150 -33 -224 -161
-421 -81 -125 -156 -218 -259 -319 -116 -114 -129 -120 -363 -167 -246 -51
-431 -62 -539 -35 -83 21 -227 90 -314 150 -38 26 -90 58 -115 70 -69 36 -196
178 -249 281 -41 80 -94 199 -112 251 -27 77 -54 286 -46 353 12 104 57 233
133 376 74 142 193 315 215 315 7 0 26 13 43 29 84 82 334 189 525 225 208 39
296 44 413 22z"/>
<path d="M10290 13025 c0 -5 5 -17 10 -25 5 -8 10 -10 10 -5 0 6 -5 17 -10 25
-5 8 -10 11 -10 5z"/>
<path d="M10417 12715 c9 -19 18 -33 21 -31 4 5 -26 66 -33 66 -3 0 3 -16 12
-35z"/>
<path d="M10580 12596 c0 -3 9 -10 20 -16 11 -6 20 -8 20 -6 0 3 -9 10 -20 16
-11 6 -20 8 -20 6z"/>
<path d="M10557 12549 c7 -7 15 -10 18 -7 3 3 -2 9 -12 12 -14 6 -15 5 -6 -5z"/>
<path d="M10680 12546 c0 -2 7 -7 16 -10 8 -3 12 -2 9 4 -6 10 -25 14 -25 6z"/>
<path d="M10597 12529 c7 -7 15 -10 18 -7 3 3 -2 9 -12 12 -14 6 -15 5 -6 -5z"/>
<path d="M10530 12480 c8 -5 20 -10 25 -10 6 0 3 5 -5 10 -8 5 -19 10 -25 10
-5 0 -3 -5 5 -10z"/>
<path d="M10714 12476 c11 -9 24 -16 30 -16 12 0 7 5 -24 19 -24 11 -24 11 -6
-3z"/>
<path d="M10810 12486 c0 -3 14 -12 30 -21 17 -9 30 -13 30 -11 0 3 -13 12
-30 21 -16 9 -30 13 -30 11z"/>
<path d="M10810 12435 c0 -7 61 -37 66 -33 2 3 -12 12 -31 21 -19 9 -35 15
-35 12z"/>
<path d="M10930 12426 c0 -2 7 -7 16 -10 8 -3 12 -2 9 4 -6 10 -25 14 -25 6z"/>
<path d="M10970 12406 c0 -2 7 -7 16 -10 8 -3 12 -2 9 4 -6 10 -25 14 -25 6z"/>
<path d="M10002 12280 c0 -14 2 -19 5 -12 2 6 2 18 0 25 -3 6 -5 1 -5 -13z"/>
<path d="M10050 12175 c13 -14 26 -25 28 -25 3 0 -5 11 -18 25 -13 14 -26 25
-28 25 -3 0 5 -11 18 -25z"/>
<path d="M10188 12103 c12 -2 30 -2 40 0 9 3 -1 5 -23 4 -22 0 -30 -2 -17 -4z"/>
<path d="M7452 13400 c0 -14 2 -19 5 -12 2 6 2 18 0 25 -3 6 -5 1 -5 -13z"/>
<path d="M7462 13320 c0 -14 2 -19 5 -12 2 6 2 18 0 25 -3 6 -5 1 -5 -13z"/>
<path d="M7472 13240 c0 -14 2 -19 5 -12 2 6 2 18 0 25 -3 6 -5 1 -5 -13z"/>
<path d="M7383 13215 c0 -22 2 -30 4 -17 2 12 2 30 0 40 -3 9 -5 -1 -4 -23z"/>
<path d="M11923 13095 c0 -38 2 -53 4 -32 2 20 2 52 0 70 -2 17 -4 1 -4 -38z"/>
<path d="M11982 13130 c0 -19 2 -27 5 -17 2 9 2 25 0 35 -3 9 -5 1 -5 -18z"/>
<path d="M13493 13050 c0 -98 1 -105 6 -45 3 39 3 90 0 115 -4 28 -6 1 -6 -70z"/>
<path d="M7392 13130 c0 -14 2 -19 5 -12 2 6 2 18 0 25 -3 6 -5 1 -5 -13z"/>
<path d="M11578 13133 c12 -2 30 -2 40 0 9 3 -1 5 -23 4 -22 0 -30 -2 -17 -4z"/>
<path d="M8500 13101 c0 -10 29 -36 34 -30 1 2 -6 12 -16 22 -10 9 -18 13 -18
8z"/>
<path d="M6793 13083 c9 -2 23 -2 30 0 6 3 -1 5 -18 5 -16 0 -22 -2 -12 -5z"/>
<path d="M6718 13073 c7 -3 16 -2 19 1 4 3 -2 6 -13 5 -11 0 -14 -3 -6 -6z"/>
<path d="M7402 13040 c0 -14 2 -19 5 -12 2 6 2 18 0 25 -3 6 -5 1 -5 -13z"/>
<path d="M12918 13023 c7 -3 16 -2 19 1 4 3 -2 6 -13 5 -11 0 -14 -3 -6 -6z"/>
<path d="M8471 13004 c0 -11 3 -14 6 -6 3 7 2 16 -1 19 -3 4 -6 -2 -5 -13z"/>
<path d="M12858 13013 c7 -3 16 -2 19 1 4 3 -2 6 -13 5 -11 0 -14 -3 -6 -6z"/>
<path d="M8428 12963 c7 -3 16 -2 19 1 4 3 -2 6 -13 5 -11 0 -14 -3 -6 -6z"/>
<path d="M11970 12966 c0 -2 8 -10 18 -17 15 -13 16 -12 3 4 -13 16 -21 21
-21 13z"/>
<path d="M7163 12893 c9 -2 25 -2 35 0 9 3 1 5 -18 5 -19 0 -27 -2 -17 -5z"/>
<path d="M6983 12765 c0 -22 2 -30 4 -17 2 12 2 30 0 40 -3 9 -5 -1 -4 -23z"/>
<path d="M7566 12772 c-3 -5 1 -9 9 -9 8 0 12 4 9 9 -3 4 -7 8 -9 8 -2 0 -6
-4 -9 -8z"/>
<path d="M12208 12763 c7 -3 16 -2 19 1 4 3 -2 6 -13 5 -11 0 -14 -3 -6 -6z"/>
<path d="M7024 12666 c1 -8 5 -18 8 -22 4 -3 5 1 4 10 -1 8 -5 18 -8 22 -4 3
-5 -1 -4 -10z"/>
<path d="M13303 12663 c9 -2 25 -2 35 0 9 3 1 5 -18 5 -19 0 -27 -2 -17 -5z"/>
<path d="M6862 12560 c0 -14 2 -19 5 -12 2 6 2 18 0 25 -3 6 -5 1 -5 -13z"/>
<path d="M13838 12523 c7 -3 16 -2 19 1 4 3 -2 6 -13 5 -11 0 -14 -3 -6 -6z"/>
<path d="M7468 12473 c6 -2 18 -2 25 0 6 3 1 5 -13 5 -14 0 -19 -2 -12 -5z"/>
<path d="M7388 12463 c6 -2 18 -2 25 0 6 3 1 5 -13 5 -14 0 -19 -2 -12 -5z"/>
<path d="M13061 12314 c0 -11 3 -14 6 -6 3 7 2 16 -1 19 -3 4 -6 -2 -5 -13z"/>
<path d="M13071 12254 c0 -11 3 -14 6 -6 3 7 2 16 -1 19 -3 4 -6 -2 -5 -13z"/>
<path d="M13081 12194 c0 -11 3 -14 6 -6 3 7 2 16 -1 19 -3 4 -6 -2 -5 -13z"/>
<path d="M6911 12094 c0 -11 3 -14 6 -6 3 7 2 16 -1 19 -3 4 -6 -2 -5 -13z"/>
<path d="M13741 12094 c0 -11 3 -14 6 -6 3 7 2 16 -1 19 -3 4 -6 -2 -5 -13z"/>
<path d="M12340 12040 c6 -11 13 -20 16 -20 2 0 0 9 -6 20 -6 11 -13 20 -16
20 -2 0 0 -9 6 -20z"/>
<path d="M8048 12033 c6 -2 18 -2 25 0 6 3 1 5 -13 5 -14 0 -19 -2 -12 -5z"/>
<path d="M13731 12024 c0 -11 3 -14 6 -6 3 7 2 16 -1 19 -3 4 -6 -2 -5 -13z"/>
<path d="M8001 11984 c0 -11 3 -14 6 -6 3 7 2 16 -1 19 -3 4 -6 -2 -5 -13z"/>
<path d="M13900 11996 c0 -2 8 -10 18 -17 15 -13 16 -12 3 4 -13 16 -21 21
-21 13z"/>
<path d="M12400 11980 c8 -5 24 -10 34 -10 26 0 18 6 -19 14 -22 5 -26 4 -15
-4z"/>
<path d="M6261 11934 c0 -11 3 -14 6 -6 3 7 2 16 -1 19 -3 4 -6 -2 -5 -13z"/>
<path d="M14218 11943 c6 -2 18 -2 25 0 6 3 1 5 -13 5 -14 0 -19 -2 -12 -5z"/>
<path d="M14298 11933 c7 -3 16 -2 19 1 4 3 -2 6 -13 5 -11 0 -14 -3 -6 -6z"/>
<path d="M12298 11923 c6 -2 18 -2 25 0 6 3 1 5 -13 5 -14 0 -19 -2 -12 -5z"/>
<path d="M6435 11900 c10 -11 20 -20 23 -20 3 0 -3 9 -13 20 -10 11 -20 20
-23 20 -3 0 3 -9 13 -20z"/>
<path d="M6251 11854 c0 -11 3 -14 6 -6 3 7 2 16 -1 19 -3 4 -6 -2 -5 -13z"/>
<path d="M6618 11813 c6 -2 18 -2 25 0 6 3 1 5 -13 5 -14 0 -19 -2 -12 -5z"/>
<path d="M6698 11803 c6 -2 18 -2 25 0 6 3 1 5 -13 5 -14 0 -19 -2 -12 -5z"/>
<path d="M6242 11780 c0 -14 2 -19 5 -12 2 6 2 18 0 25 -3 6 -5 1 -5 -13z"/>
<path d="M6613 11743 c9 -2 23 -2 30 0 6 3 -1 5 -18 5 -16 0 -22 -2 -12 -5z"/>
<path d="M6708 11733 c6 -2 18 -2 25 0 6 3 1 5 -13 5 -14 0 -19 -2 -12 -5z"/>
<path d="M14101 11664 c0 -11 3 -14 6 -6 3 7 2 16 -1 19 -3 4 -6 -2 -5 -13z"/>
<path d="M13528 11613 c7 -3 16 -2 19 1 4 3 -2 6 -13 5 -11 0 -14 -3 -6 -6z"/>
<path d="M11376 11560 c7 -28 12 -35 18 -29 2 2 -2 15 -10 29 l-15 25 7 -25z"/>
<path d="M6375 11460 c10 -11 20 -20 23 -20 3 0 -3 9 -13 20 -10 11 -20 20
-23 20 -3 0 3 -9 13 -20z"/>
<path d="M11465 11450 c11 -5 27 -9 35 -9 9 0 8 4 -5 9 -11 5 -27 9 -35 9 -9
0 -8 -4 5 -9z"/>
<path d="M6732 11390 c0 -14 2 -19 5 -12 2 6 2 18 0 25 -3 6 -5 1 -5 -13z"/>
<path d="M11372 11355 c0 -16 2 -22 5 -12 2 9 2 23 0 30 -3 6 -5 -1 -5 -18z"/>
<path d="M6138 11333 c6 -2 18 -2 25 0 6 3 1 5 -13 5 -14 0 -19 -2 -12 -5z"/>
<path d="M6218 11323 c6 -2 18 -2 25 0 6 3 1 5 -13 5 -14 0 -19 -2 -12 -5z"/>
<path d="M6308 11313 c6 -2 18 -2 25 0 6 3 1 5 -13 5 -14 0 -19 -2 -12 -5z"/>
<path d="M9628 11243 c7 -3 16 -2 19 1 4 3 -2 6 -13 5 -11 0 -14 -3 -6 -6z"/>
<path d="M11950 10038 c-44 -30 -105 -118 -126 -184 -39 -120 27 -239 140
-251 63 -8 173 35 215 82 61 70 67 180 15 275 -38 70 -74 93 -149 98 -50 3
-66 0 -95 -20z"/>
<path d="M7978 10006 c-147 -54 -204 -149 -163 -267 19 -52 67 -106 112 -125
81 -35 204 -4 276 71 93 96 71 247 -45 306 -52 27 -132 33 -180 15z"/>
<path d="M7705 9067 c-29 -29 -35 -42 -35 -79 0 -54 39 -119 108 -178 54 -47
239 -143 427 -223 280 -119 292 -122 835 -217 58 -10 177 -24 265 -30 88 -6
221 -19 295 -30 221 -32 467 -42 850 -37 342 5 655 25 730 47 19 5 109 21 200
35 91 14 190 33 220 41 168 48 569 234 671 311 35 27 94 68 132 92 80 52 114
89 123 136 9 48 -7 86 -47 113 -50 35 -90 26 -195 -46 -166 -112 -274 -173
-351 -202 -43 -15 -105 -40 -138 -55 -121 -55 -318 -115 -410 -126 -49 -5
-151 -21 -225 -34 -319 -56 -1038 -57 -1505 0 -66 8 -207 21 -314 29 -186 15
-473 59 -726 112 -82 18 -180 49 -310 101 -237 93 -332 143 -407 212 -51 47
-65 55 -108 59 -46 4 -52 2 -85 -31z"/>
<path d="M9990 3747 c0 -53 1 -55 32 -66 86 -30 400 -20 438 14 22 20 36 73
24 85 -5 5 -118 12 -251 16 l-243 7 0 -56z"/>
</g>
</svg>
